HIERARCHY
ROOT hip
{
  OFFSET 0 0 0
  CHANNELS 6 Xposition Yposition Zposition Zrotation Yrotation Xrotation
  JOINT abdomen
  {
    OFFSET 0 20.6881 -0.73152
    CHANNELS 3 Zrotation Xrotation Yrotation
    JOINT chest
    {
      OFFSET 0 11.7043 -0.48768
      CHANNELS 3 Zrotation Xrotation Yrotation
      JOINT neck
      {
        OFFSET 0 22.1894 -2.19456
        CHANNELS 3 Zrotation Xrotation Yrotation
        JOINT head
        {
          OFFSET -0.24384 7.07133 1.2192
          CHANNELS 3 Zrotation Xrotation Yrotation
          JOINT leftEye
          {
            OFFSET 4.14528 8.04674 8.04672
            CHANNELS 3 Zrotation Xrotation Yrotation
            End Site
            {
              OFFSET 1 0 0
            }
          }
          JOINT rightEye
          {
            OFFSET -3.6576 8.04674 8.04672
            CHANNELS 3 Zrotation Xrotation Yrotation
            End Site
            {
              OFFSET 1 0 0
            }
          }
        }
      }
      JOINT rCollar
      {
        OFFSET -2.68224 19.2634 -4.8768
        CHANNELS 3 Zrotation Xrotation Yrotation
        JOINT rShldr
        {
          OFFSET -8.77824 -1.95073 1.46304
          CHANNELS 3 Zrotation Xrotation Yrotation
          JOINT rForeArm
          {
            OFFSET -28.1742 -1.7115 0.48768
            CHANNELS 3 Zrotation Xrotation Yrotation
            JOINT rHand
            {
              OFFSET -22.5879 0.773209 7.07136
              CHANNELS 3 Zrotation Xrotation Yrotation
              JOINT rThumb1
              {
                OFFSET -1.2192 -0.487915 3.41376
                CHANNELS 3 Zrotation Xrotation Yrotation
                JOINT rThumb2
                {
                  OFFSET -3.37035 -0.52449 3.41376
                  CHANNELS 3 Zrotation Xrotation Yrotation
                  End Site
                  {
                    OFFSET -1.78271 -1.18214 1.43049
                  }
                }
              }
              JOINT rIndex1
              {
                OFFSET -7.75947 0.938293 5.60832
                CHANNELS 3 Zrotation Xrotation Yrotation
                JOINT rIndex2
                {
                  OFFSET -2.54057 -0.884171 1.56538
                  CHANNELS 3 Zrotation Xrotation Yrotation
                  End Site
                  {
                    OFFSET -1.62519 -0.234802 1.16502
                  }
                }
              }
              JOINT rMid1
              {
                OFFSET -8.24714 1.18213 3.41376
                CHANNELS 3 Zrotation Xrotation Yrotation
                JOINT rMid2
                {
                  OFFSET -3.10165 -0.590103 1.0647
                  CHANNELS 3 Zrotation Xrotation Yrotation
                  End Site
                  {
                    OFFSET -2.48547 -0.328903 0.83742
                  }
                }
              }
              JOINT rRing1
              {
                OFFSET -8.82822 0.546677 1.51678
                CHANNELS 3 Zrotation Xrotation Yrotation
                JOINT rRing2
                {
                  OFFSET -2.60934 -0.819778 -0.0198488
                  CHANNELS 3 Zrotation Xrotation Yrotation
                  End Site
                  {
                    OFFSET -2.33842 -0.294052 0.168128
                  }
                }
              }
              JOINT rPinky1
              {
                OFFSET -8.27202 -0.0477905 -0.4584
                CHANNELS 3 Zrotation Xrotation Yrotation
                JOINT rPinky2
                {
                  OFFSET -1.82734 -0.647385 -0.700984
                  CHANNELS 3 Zrotation Xrotation Yrotation
                  End Site
                  {
                    OFFSET -1.69225 -0.51767 -0.607171
                  }
                }
              }
            }
          }
        }
      }
      JOINT lCollar
      {
        OFFSET 2.68224 19.2634 -4.8768
        CHANNELS 3 Zrotation Xrotation Yrotation
        JOINT lShldr
        {
          OFFSET 8.77824 -1.95073 1.46304
          CHANNELS 3 Zrotation Xrotation Yrotation
          JOINT lForeArm
          {
            OFFSET 28.1742 -1.7115 0.48768
            CHANNELS 3 Zrotation Xrotation Yrotation
            JOINT lHand
            {
              OFFSET 22.5879 0.773209 7.07136
              CHANNELS 3 Zrotation Xrotation Yrotation
              JOINT lThumb1
              {
                OFFSET 1.2192 -0.487915 3.41376
                CHANNELS 3 Zrotation Xrotation Yrotation
                JOINT lThumb2
                {
                  OFFSET 3.37035 -0.52449 3.41376
                  CHANNELS 3 Zrotation Xrotation Yrotation
                  End Site
                  {
                    OFFSET 1.78271 -1.18214 1.43049
                  }
                }
              }
              JOINT lIndex1
              {
                OFFSET 7.75947 0.938293 5.60832
                CHANNELS 3 Zrotation Xrotation Yrotation
                JOINT lIndex2
                {
                  OFFSET 2.54057 -0.884171 1.56538
                  CHANNELS 3 Zrotation Xrotation Yrotation
                  End Site
                  {
                    OFFSET 1.62519 -0.234802 1.16502
                  }
                }
              }
              JOINT lMid1
              {
                OFFSET 8.24714 1.18213 3.41376
                CHANNELS 3 Zrotation Xrotation Yrotation
                JOINT lMid2
                {
                  OFFSET 3.10165 -0.590103 1.0647
                  CHANNELS 3 Zrotation Xrotation Yrotation
                  End Site
                  {
                    OFFSET 2.48547 -0.328903 0.83742
                  }
                }
              }
              JOINT lRing1
              {
                OFFSET 8.82822 0.546677 1.51678
                CHANNELS 3 Zrotation Xrotation Yrotation
                JOINT lRing2
                {
                  OFFSET 2.60934 -0.819778 -0.0198488
                  CHANNELS 3 Zrotation Xrotation Yrotation
                  End Site
                  {
                    OFFSET 2.33842 -0.294052 0.168128
                  }
                }
              }
              JOINT lPinky1
              {
                OFFSET 8.27202 -0.0477905 -0.4584
                CHANNELS 3 Zrotation Xrotation Yrotation
                JOINT lPinky2
                {
                  OFFSET 1.82734 -0.647385 -0.700984
                  CHANNELS 3 Zrotation Xrotation Yrotation
                  End Site
                  {
                    OFFSET 1.69225 -0.51767 -0.607171
                  }
                }
              }
            }
          }
        }
      }
    }
  }
  JOINT rButtock
  {
    OFFSET -8.77824 4.35084 1.2192
    CHANNELS 3 Zrotation Xrotation Yrotation
    JOINT rThigh
    {
      OFFSET 0 -1.70687 -2.19456
      CHANNELS 3 Zrotation Xrotation Yrotation
      JOINT rShin
      {
        OFFSET 0 -36.8199 0.73152
        CHANNELS 3 Zrotation Xrotation Yrotation
        JOINT rFoot
        {
          OFFSET 0.73152 -45.1104 -5.12064
          CHANNELS 3 Zrotation Xrotation Yrotation
          End Site
          {
            OFFSET -1.1221 -3.69964 12.103
          }
        }
      }
    }
  }
  JOINT lButtock
  {
    OFFSET 8.77824 4.35084 1.2192
    CHANNELS 3 Zrotation Xrotation Yrotation
    JOINT lThigh
    {
      OFFSET 0 -1.70687 -2.19456
      CHANNELS 3 Zrotation Xrotation Yrotation
      JOINT lShin
      {
        OFFSET 0 -36.8199 0.73152
        CHANNELS 3 Zrotation Xrotation Yrotation
        JOINT lFoot
        {
          OFFSET -0.73152 -45.1104 -5.12064
          CHANNELS 3 Zrotation Xrotation Yrotation
          End Site
          {
            OFFSET 1.1221 -3.69964 12.103
          }
        }
      }
    }
  }
}
MOTION
Frames:	8
Frame Time:	0.03333
-67.3921 68.6032 18.4671 -175.75439 -60.898102 176.050429 -9.89236 -9.051182 -1.982482 16.382394 -4.507317 12.179521 -2.12552 -13.136452 3.185995 13.667397 -0.766131 17.276542 13.033432 3.334988 28.594654 -7.750159 -6.214208 77.415946 16.125643 75.145202 -7.179009 -69.700667 86.518238 89.026051 7.372579 -45.900456 -51.003872 172.696094 -7.461681 153.661741 -22.308806 52.844478 -0.341997 -134.516621 -0.943779 83.784204 177.715402 22.131511 124.073422 -80.048222 73.37921 -32.442169 -150.592167 31.24824 177.481864 -14.037022 -18.891114 -61.306584 14.352758 78.132574 57.918992 110.671461 29.854701 -69.985669 175.208342 23.971415 -145.666418 -76.046627 65.186274 103.677336 163.436874 -9.051865 -142.495972 -32.839653 25.657752 16.548226 -57.771732 -3.96931 23.622569 99.105727 53.289306 -75.407895 173.754807 -15.727101 -60.311023 2.994742 -22.656613 -80.728754 -108.847037 -41.228927 -89.08886 -35.331377 69.01647 122.90031 157.819981 -9.058904 -138.601693 -1.04978 12.189586 -16.855624 -18.874541 0.105131 -18.603493 -53.940672 14.833341 3.335574 -47.964244 -8.451988 -11.440588 151.318699 -54.687757 94.168937 -156.984345 62.622291 -25.565445 171.93783 39.22843 12.624701 36.760351 63.86015 -177.916572 134.603777 84.944109 -28.255993 -8.463355 0.333928 11.078844 -47.278261 -32.172707 -63.815443 -15.434025 52.266035 134.362448 -143.332416 -29.002962 97.416469
-70.9762 68.7913 17.8067 -176.144028 -62.033115 176.37821 -9.649856 -12.011454 -180.0 -15.154082 2.332904 -170.987835 -9.859027 1.658145 -111.488115 11.532219 22.333265 126.546308 36.472545 14.057114 41.030861 -25.938791 -8.23076 34.699071 9.17959 71.313926 -1.89796 16.8391 0.090738 -0.213109 -23.172308 4.458591 -40.773253 157.647304 -50.034132 145.26505 -162.217418 -27.943793 110.587698 -31.062671 -13.326333 19.263069 -147.374559 47.525979 88.621457 -72.607298 -49.554352 20.256237 101.73783 75.994653 -89.309692 -177.709672 -58.700901 -144.887812 -7.633518 -59.04899 -82.902876 -81.381041 22.372539 61.714262 172.862515 12.828824 -171.987023 -164.501387 -7.5969 156.005995 161.785809 -9.477753 -144.005594 -48.647838 48.58684 14.339847 -155.454543 -76.741027 -70.677213 156.589126 11.440201 -143.751261 -3.935822 -0.858622 -10.264811 145.659369 39.261136 -132.955569 147.796662 29.702482 -95.466734 159.664999 5.622824 -33.667117 146.991892 -52.214731 -166.370629 158.69617 -26.123684 -135.076031 51.348523 -73.965235 94.274313 -45.152916 48.869764 31.17158 20.580956 -58.286642 45.170689 169.987538 -0.719375 -176.404513 -8.269225 7.840518 11.80149 0.134476 -30.76716 0.071087 12.65012 61.359817 -120.080024 -121.501726 -76.614676 -26.167342 155.111192 78.747859 -0.0 157.438617 38.484371 118.47516 44.281375 -20.882537 96.371633 -115.154574 30.116862 172.074972
-74.3153 69.1661 17.1411 -177.252748 -60.916703 178.290628 -7.347881 -10.341042 180.0 -12.420749 5.19776 -169.851319 -1.868748 3.272501 -149.735523 3.36898 19.42279 165.794468 46.117711 19.930845 44.857284 -29.529294 -2.495802 9.449906 4.978137 0.75771 -14.872485 -39.040141 -84.360344 -52.084215 105.277031 -54.165823 60.480758 -146.802755 51.488959 133.126375 89.205474 -58.63917 18.837614 -114.788386 15.717328 47.035324 -101.453033 52.777541 53.790068 90.29341 24.602746 52.829716 5.901952 -32.191593 -54.331595 -168.885928 -12.321954 68.564153 44.933122 4.124598 -14.549709 -39.40824 4.89724 -14.926861 -54.610027 0.076568 61.00247 14.542459 -38.869869 -102.035254 145.832447 11.770751 -141.125419 -43.25049 7.238647 24.157726 13.055376 -40.323659 105.133559 164.256793 2.714149 -153.438213 0.784137 1.127872 9.83167 29.335613 48.741394 -3.363872 178.413155 -62.5352 -155.65186 11.851563 53.737762 57.475319 -18.209442 45.521608 9.920759 31.724499 63.981064 7.21263 121.428614 8.988976 168.076297 101.0065 -56.749205 122.328618 138.565229 14.454253 134.109611 119.920573 74.425472 137.563053 -141.544726 58.317352 -43.022306 166.095753 47.420781 10.14312 18.826162 54.027798 -93.153216 149.922072 -10.710097 -15.560523 -97.748098 28.872437 -63.088522 88.849254 21.83905 1.928295 -16.164931 35.442348 -137.648013 153.93515 6.719654 176.051428
-77.3441 70.2491 16.7545 -176.630983 -60.874535 178.834524 -2.160477 -2.712819 -12.35158 10.406475 -13.398819 22.542009 4.154646 -14.96775 -7.809782 2.183685 1.790073 31.266994 49.95349 24.591066 50.149666 -31.678228 1.26366 -4.45201 2.161813 15.491227 -7.100034 16.587437 15.730576 -1.590101 39.765515 -77.886801 60.963467 -11.394012 -4.619168 6.819219 -179.843439 -44.19429 83.989486 -27.56626 -16.511139 33.991779 -161.621526 -16.636381 140.931227 -14.341015 -78.965176 -0.11144 -18.580874 -50.916537 -72.62698 -149.578947 -35.400009 87.240464 21.138355 -2.278918 -14.818775 -29.748232 -61.690394 -21.286258 130.718059 -78.235216 162.559164 68.159462 65.824208 -123.391004 -10.451155 -13.604091 -9.349054 38.976511 -11.091194 -27.226394 -15.817404 -41.155981 -84.176218 13.318591 -17.843024 -3.525055 3.301694 7.5078 17.974068 -13.70008 -25.700948 34.235174 164.299379 -31.559777 -157.107751 78.066358 -81.666849 87.858123 138.354691 -39.61039 -150.208453 -153.109199 -51.120855 -77.697303 43.882512 -64.441131 79.271449 -16.654519 0.606137 -4.034302 142.603569 21.510598 132.394497 78.052173 11.67968 141.53233 55.291149 52.032644 46.4478 -88.462029 9.766553 89.739047 36.362638 -59.369643 6.910054 -156.169083 10.93397 -162.20867 27.249625 46.659172 85.036202 -92.771384 34.711747 -180.0 -18.761016 -12.622368 70.884314 47.665018 6.169959 44.835008
-80.1135 71.69630000000001 16.6038 -177.036983 -60.362795 179.929692 -0.157281 -1.391209 -6.450754 6.976528 -18.135386 12.445345 6.859004 -10.911273 -9.796082 1.779196 -1.457515 41.372944 35.94858 22.966365 64.107704 -40.039757 6.065324 -16.545977 -6.15978 35.850188 6.603202 21.2866 16.282572 2.530605 17.717213 84.663306 -76.3533 -167.049232 7.139245 147.579989 -164.275982 -35.056433 91.530605 -45.917309 12.022843 40.7117 -17.351133 43.310278 1.842551 171.754235 -48.022238 56.622232 -161.9372 64.122021 177.607537 179.677822 -23.538241 -163.112882 -1.067686 25.657734 0.682322 29.4102 74.42237 -14.896251 -30.337596 4.313316 11.460816 52.85238 -19.66117 -27.837413 149.883564 -6.692971 -155.78653 -64.930618 15.337578 0.993106 -120.707439 15.537037 45.355522 34.816828 39.015261 -18.864945 2.779424 11.755176 17.633186 -1.107017 10.124286 -2.420061 145.122432 -69.408649 -169.454364 18.886087 79.214972 6.077171 124.011513 12.352379 -123.682873 1.438033 61.625655 -39.066085 66.562165 69.591993 -91.931799 58.793487 -82.679988 88.569379 131.403133 -1.711681 138.791053 -78.770164 -85.746627 -41.773756 -83.061381 13.52955 -27.385703 82.829686 5.948094 90.746903 62.56285 12.055981 -178.77426 -98.191241 -66.771202 -4.977627 15.767634 21.196127 66.488815 -60.714991 9.578048 -95.331232 -6.937842 16.653717 68.574555 54.435673 -49.952748 11.11234
-82.7527 72.83460000000001 16.8632 -177.226749 -59.631099 -178.733601 -0.13194 -8.053166 171.970547 -7.112226 13.889229 -169.990888 14.724862 13.881896 169.879079 -0.160409 26.22925 -132.530163 21.822833 14.580957 67.139681 -53.707776 10.444374 -20.465039 -1.421779 -86.684646 -22.496166 -176.864618 -58.992618 -177.580639 11.70677 -5.654215 -63.10166 -164.476896 13.90408 141.90428 -12.796025 37.757144 14.419561 -33.402324 -20.210413 5.901297 -12.968908 39.081864 4.889851 -163.714242 -38.174434 78.35808 -118.418915 -59.136893 -163.391182 21.25981 49.85448 19.712205 -109.354705 -76.560702 -106.893749 -28.956548 -30.024507 -30.208023 169.477091 39.695324 -136.101731 -27.503381 -5.82204 34.240918 153.739018 -23.44583 -162.512843 109.389975 -2.503274 -158.593185 102.236457 -22.463584 -15.513095 -71.086228 -77.393025 -55.946915 170.540459 -7.435208 -105.962578 -163.595529 -30.470021 -99.252806 7.44573 -3.720322 14.228073 52.357274 50.675427 -60.060531 121.320446 17.96921 -106.999005 114.939269 16.270271 -143.317183 -3.495799 -2.443295 -8.622265 9.450654 -41.295937 32.719323 146.318688 -3.578499 151.314065 -174.706554 -70.122163 179.002251 -39.132021 1.770795 -0.0 34.916905 -22.328479 -75.222978 -56.762876 15.812901 55.029971 87.534433 -34.282164 7.8952 16.426854 29.103138 67.702398 -65.226467 9.464307 -94.339666 -5.501101 15.203429 63.311364 122.08323 -8.039539 36.044637
-85.4379 73.9423 17.503 -178.48901 -57.556288 -177.250634 0.175746 -4.975773 3.88013 4.56044 -19.540836 -2.908313 0.988508 6.65428 -57.888049 22.920598 -0.038514 96.249635 16.453924 9.527196 59.915422 -66.610885 9.492329 -14.404484 -20.610435 39.772248 24.658528 -146.241425 5.600731 174.066636 2.06099 -76.016471 -70.318348 -170.780896 1.824791 141.761188 -152.694085 -18.825413 94.511983 -0.082875 -86.984239 -51.17591 -141.542486 -23.651586 134.873615 -6.488105 -8.39702 -27.942101 -124.030019 -76.466733 -162.905682 -10.465646 44.622437 33.216366 -142.984357 50.6102 130.42506 101.473275 -55.833377 68.633634 16.629594 46.282318 -23.342173 8.739147 -51.011402 15.676384 -3.953692 -0.093274 -0.500395 40.656122 29.4428 -1.814066 36.500128 -79.347768 -67.85955 0.051043 1.31559 -2.238096 11.404394 1.254688 12.924348 -10.01791 -13.768543 5.568335 59.397033 42.782564 -25.827978 150.964024 -8.556916 -86.252845 -73.546928 -47.597087 -50.877705 168.575891 36.248919 -108.552343 138.788847 -6.841922 -168.28781 -42.604002 -35.686215 -25.755746 177.545893 44.963366 160.806328 12.173531 -16.644503 -49.915322 -125.364653 58.332501 -58.865429 153.928868 49.30991 -167.516061 -44.557814 -51.485942 -164.058255 -38.227845 -30.333998 -106.844532 -117.090452 39.837023 -71.857067 129.315672 50.306784 -0.0 6.487582 17.008365 54.476997 -100.074153 15.366716 -45.422497
-88.0243 74.8649 18.4177 -179.87975 -52.458402 -176.078178 0.308803 -9.224647 176.43314 -7.37789 14.153415 -173.083838 20.607253 15.68399 105.255681 -28.913677 13.691875 -64.498023 19.910837 10.63789 55.884156 -59.795801 5.225311 -9.075149 -15.186344 28.96946 22.569301 27.236289 20.546303 0.635394 -11.600515 -76.372701 25.01796 -4.795218 -14.140584 -5.765619 -71.727127 37.427801 54.15567 162.586802 -54.496979 109.029093 -11.697833 35.250202 8.792549 82.467608 -45.654476 51.038431 -138.469451 53.712384 129.429961 -163.161037 -1.797836 152.931664 -168.151864 -1.072192 176.3343 89.714504 -83.155205 84.118186 -89.076131 -8.801639 -77.59883 -88.159238 70.40714 175.001866 143.469602 33.484153 -151.358311 -6.125157 -74.959941 45.756008 14.067905 -86.03199 -93.635726 6.765819 29.372745 -5.272226 87.440721 48.569014 -32.10388 -34.842174 -27.111484 -25.939372 68.999677 38.955307 -25.389708 -53.721244 -7.638919 -39.630467 145.741539 -7.619409 -117.220926 -38.650808 31.027131 -8.609795 -21.394448 -25.985225 -14.402472 -155.227668 13.432629 155.512272 -162.517465 6.681607 124.902278 69.987979 -3.565197 -14.236655 -107.043583 57.443875 -75.512178 145.285616 57.319814 -21.203968 -24.908978 66.290837 142.879161 141.671263 31.476448 142.908317 -7.933069 6.965061 48.96977 -32.371119 -16.575295 -10.931145 10.93024 14.264637 -102.685435 56.242529 -8.799551 78.552043
